<?xml version='1.0' encoding='utf-8'?><!DOCTYPE svg  PUBLIC '-//W3C//DTD SVG 1.1//EN'  'http://www.w3.org/Graphics/SVG/1.1/DTD/svg11.dtd'><svg viewBox="0 0 548.358 548.358" xmlns="http://www.w3.org/2000/svg" xmlns:xlink="http://www.w3.org/1999/xlink"><style>:root>svg{display:none}:root>svg:target{display:block}</style><svg viewBox="0 0 129 129" id="arrow" xmlns="http://www.w3.org/2000/svg"><path d="M121.3 34.6c-1.6-1.6-4.2-1.6-5.8 0l-51 51.1-51.1-51.1c-1.6-1.6-4.2-1.6-5.8 0-1.6 1.6-1.6 4.2 0 5.8l53.9 53.9c.8.8 1.8 1.2 2.9 1.2 1 0 2.1-.4 2.9-1.2l53.9-53.9c1.7-1.6 1.7-4.2.1-5.8z"/></svg><svg viewBox="0 0 10 20" id="facebook" xmlns="http://www.w3.org/2000/svg"><path d="M6.821 20v-9h2.733L10 7H6.821V5.052C6.821 4.022 6.848 3 8.287 3h1.458V.14c0-.043-1.253-.14-2.52-.14C4.58 0 2.924 1.657 2.924 4.7V7H0v4h2.923v9h3.898z"/></svg><svg viewBox="0 0 24 24" fill="none" stroke="currentColor" stroke-width="2" stroke-linecap="round" stroke-linejoin="round" class="cfeather cfeather-instagram" id="instagram" xmlns="http://www.w3.org/2000/svg"><rect x="2" y="2" width="20" height="20" rx="5" ry="5"/><path d="M16 11.37A4 4 0 1112.63 8 4 4 0 0116 11.37zM17.5 6.5h0"/></svg><svg viewBox="0 0 24 24" fill="none" stroke="currentColor" stroke-width="2" stroke-linecap="round" stroke-linejoin="round" class="dfeather dfeather-search" id="search" xmlns="http://www.w3.org/2000/svg"><circle cx="11" cy="11" r="8"/><path d="M21 21l-4.35-4.35"/></svg><svg viewBox="0 0 32 32" id="slider-arrow" xmlns="http://www.w3.org/2000/svg"><path d="M28 14H8.8l4.62-4.62c.394-.394.58-.864.58-1.38 0-.984-.813-2-2-2-.531 0-.994.193-1.38.58l-7.958 7.958C2.334 14.866 2 15.271 2 16s.279 1.08.646 1.447l7.974 7.973c.386.387.849.58 1.38.58 1.188 0 2-1.016 2-2 0-.516-.186-.986-.58-1.38L8.8 18H28a2 2 0 000-4z"/></svg><svg version="1.0" viewBox="0 0 100 100" id="telegram" xmlns="http://www.w3.org/2000/svg"><path d="M84.16 14.148l-71.047 29.57s-3.359 1.221-3.099 3.473c.267 2.256 3.008 3.288 3.008 3.288l17.877 6.382s5.396 18.772 6.458 22.344c1.062 3.562 1.914 3.646 1.914 3.646.989.456 1.888-.27 1.888-.27l11.55-11.169L70.71 86.054c4.869 2.253 6.641-2.441 6.641-2.441L90 15.935c0-4.508-5.84-1.787-5.84-1.787zM71.582 78.17L52.324 62.51l-5.976 5.777 1.314-12.291 25.67-24.329-34.991 20.774-15.521-5.54 59.217-24.648L71.582 78.17z"/></svg><svg viewBox="0 0 548.358 548.358" id="vk" xmlns="http://www.w3.org/2000/svg"><path d="M545.451 400.298c-.664-1.431-1.283-2.618-1.858-3.569-9.514-17.135-27.695-38.167-54.532-63.102l-.567-.571-.284-.28-.287-.287h-.288c-12.18-11.611-19.893-19.418-23.123-23.415-5.91-7.614-7.234-15.321-4.004-23.13 2.282-5.9 10.854-18.36 25.696-37.397 7.807-10.089 13.99-18.175 18.556-24.267 32.931-43.78 47.208-71.756 42.828-83.939l-1.701-2.847c-1.143-1.714-4.093-3.282-8.846-4.712-4.764-1.427-10.853-1.663-18.278-.712l-82.224.568c-1.332-.472-3.234-.428-5.712.144l-3.713.859-1.431.715-1.136.859c-.952.568-1.999 1.567-3.142 2.995-1.137 1.423-2.088 3.093-2.848 4.996-8.952 23.031-19.13 44.444-30.553 64.238-7.043 11.803-13.511 22.032-19.418 30.693-5.899 8.658-10.848 15.037-14.842 19.126-4 4.093-7.61 7.372-10.852 9.849-3.237 2.478-5.708 3.525-7.419 3.142-1.715-.383-3.33-.763-4.859-1.143-2.663-1.714-4.805-4.045-6.42-6.995-1.622-2.95-2.714-6.663-3.285-11.136-.568-4.476-.904-8.326-1-11.563-.089-3.233-.048-7.806.145-13.706.198-5.903.287-9.897.287-11.991 0-7.234.141-15.085.424-23.555.288-8.47.521-15.181.716-20.125.194-4.949.284-10.185.284-15.705s-.336-9.849-1-12.991a44.442 44.442 0 00-2.99-9.137c-1.335-2.95-3.289-5.232-5.853-6.852-2.569-1.618-5.763-2.902-9.564-3.856-10.089-2.283-22.936-3.518-38.547-3.71-35.401-.38-58.148 1.906-68.236 6.855-3.997 2.091-7.614 4.948-10.848 8.562-3.427 4.189-3.905 6.475-1.431 6.851 11.422 1.711 19.508 5.804 24.267 12.275l1.715 3.429c1.334 2.474 2.666 6.854 3.999 13.134 1.331 6.28 2.19 13.227 2.568 20.837.95 13.897.95 25.793 0 35.689-.953 9.9-1.853 17.607-2.712 23.127-.859 5.52-2.143 9.993-3.855 13.418-1.715 3.426-2.856 5.52-3.428 6.28-.571.76-1.047 1.239-1.425 1.427a21.387 21.387 0 01-7.71 1.431c-2.667 0-5.901-1.334-9.707-4-3.805-2.666-7.754-6.328-11.847-10.992-4.093-4.665-8.709-11.184-13.85-19.558-5.137-8.374-10.467-18.271-15.987-29.691l-4.567-8.282c-2.855-5.328-6.755-13.086-11.704-23.267-4.952-10.185-9.329-20.037-13.134-29.554-1.521-3.997-3.806-7.04-6.851-9.134l-1.429-.859c-.95-.76-2.475-1.567-4.567-2.427a30.301 30.301 0 00-6.567-1.854l-78.229.568c-7.994 0-13.418 1.811-16.274 5.428l-1.143 1.711c-.571.953-.859 2.475-.859 4.57 0 2.094.571 4.664 1.714 7.707 11.42 26.84 23.839 52.725 37.257 77.659 13.418 24.934 25.078 45.019 34.973 60.237 9.897 15.229 19.985 29.602 30.264 43.112 10.279 13.515 17.083 22.176 20.412 25.981 3.333 3.812 5.951 6.662 7.854 8.565l7.139 6.851c4.568 4.569 11.276 10.041 20.127 16.416 8.853 6.379 18.654 12.659 29.408 18.85 10.756 6.181 23.269 11.225 37.546 15.126 14.275 3.905 28.169 5.472 41.684 4.716h32.834c6.659-.575 11.704-2.669 15.133-6.283l1.136-1.431c.764-1.136 1.479-2.901 2.139-5.276.668-2.379 1-5 1-7.851-.195-8.183.428-15.558 1.852-22.124 1.423-6.564 3.045-11.513 4.859-14.846 1.813-3.33 3.859-6.14 6.136-8.418 2.282-2.283 3.908-3.666 4.862-4.142.948-.479 1.705-.804 2.276-.999 4.568-1.522 9.944-.048 16.136 4.429 6.187 4.473 11.99 9.996 17.418 16.56 5.425 6.57 11.943 13.941 19.555 22.124 7.617 8.186 14.277 14.271 19.985 18.274l5.708 3.426c3.812 2.286 8.761 4.38 14.853 6.283 6.081 1.902 11.409 2.378 15.984 1.427l73.087-1.14c7.229 0 12.854-1.197 16.844-3.572 3.998-2.379 6.373-5 7.139-7.851.764-2.854.805-6.092.145-9.712-.677-3.611-1.344-6.136-2.008-7.563z"/></svg><svg viewBox="0 0 512 512" id="whatsapp" xmlns="http://www.w3.org/2000/svg"><path d="M123.832 475.465c39.559 23.805 84.79 36.351 131.262 36.351C395.918 511.816 512 396.902 512 255.906 512 115.074 396.082 0 255.094 0 114.535 0 .184 114.8.184 255.906c0 47.094 12.55 92.668 36.351 132.258L0 512zM30.176 255.906c0-124.57 100.898-225.918 224.918-225.918 125.12 0 226.918 101.348 226.918 225.918 0 124.574-101.797 225.918-226.918 225.918-43.055 0-84.895-12.195-120.985-35.273l-5.765-3.684-83.989 24.781 24.778-83.992-3.684-5.761c-23.078-36.098-35.273-78.278-35.273-121.989zm0 0"/><path d="M124.629 208.754c4.953 26.012 19.656 76.043 62.465 118.851 42.808 42.81 92.84 57.516 118.855 62.47 29.79 5.671 73.504 6.527 94.867-14.837l11.91-11.91c6.012-6.012 9.325-14.008 9.325-22.512s-3.313-16.496-9.324-22.507l-47.63-47.63c-6.015-6.015-14.007-9.324-22.511-9.324s-16.496 3.31-22.512 9.325l-11.906 11.906c-7.273 7.273-21.004 7.305-28.332.09l-47.508-49.5c-.07-.074-.14-.149-.215-.219-7.285-7.285-7.285-19.14 0-26.426l11.907-11.906c12.445-12.445 12.445-32.582 0-45.023l-47.63-47.63c-12.41-12.41-32.605-12.41-45.019 0l-11.906 11.91v-.003c-17.05 17.055-22.735 53.406-14.836 94.875zm36.043-73.664c12.5-12.215 11.832-12.45 13.21-12.45.473 0 .946.18 1.305.54 50.188 50.457 48.172 47.492 48.172 48.937 0 .504-.183.946-.539 1.305l-11.91 11.906c-18.965 18.965-19.039 49.664-.12 68.715l47.534 49.531c.074.07.145.145.219.219 18.96 18.96 51.809 19.023 70.832 0l11.906-11.906a1.848 1.848 0 012.61 0c50.187 50.453 48.171 47.488 48.171 48.933 0 .508-.183.946-.539 1.305l-11.91 11.906c-8.16 8.16-34.152 13.043-68.054 6.586-22.625-4.312-66.13-17.086-103.258-54.215-37.13-37.129-49.903-80.632-54.211-103.257-6.461-33.903-1.578-59.899 6.582-68.055zm0 0"/></svg><svg viewBox="0 0 20 14" id="youtube" xmlns="http://www.w3.org/2000/svg"><path d="M7.988 9.586V3.974c1.993.938 3.536 1.843 5.36 2.82-1.505.834-3.367 1.77-5.36 2.792m11.103-8.403c-.344-.453-.93-.805-1.553-.922-1.833-.348-13.267-.349-15.099 0-.5.094-.945.32-1.328.673C-.5 2.429.005 10.452.393 11.75c.164.562.375.968.64 1.235.343.352.812.594 1.351.703 1.51.312 9.284.486 15.122.047a2.62 2.62 0 001.39-.712c1.49-1.49 1.388-9.962.195-11.841"/></svg></svg>