<svg width="52" height="52" fill="none" xmlns="http://www.w3.org/2000/svg"><g clip-path="url(#clip0_121_27)"><path d="M3.25 3.538C-.836 7.783 0 12.291 0 25.99c0 11.375-1.985 22.778 8.402 25.463 3.244.834 31.983.834 35.222-.005 4.324-1.115 7.843-4.623 8.324-10.74.067-.853.067-28.567-.002-29.438C51.435 4.754 47.424.999 42.14.239c-1.212-.176-1.454-.228-7.668-.24C12.43.012 7.598-.97 3.25 3.54z" fill="url(#paint0_linear_121_27)"/><path d="M25.996 6.801c-7.867 0-15.338-.7-18.192 6.624-1.178 3.024-1.007 6.953-1.007 12.577 0 4.936-.158 9.575 1.007 12.576 2.847 7.327 10.379 6.625 18.187 6.625 7.534 0 15.301.785 18.19-6.625 1.18-3.055 1.007-6.925 1.007-12.576 0-7.5.414-12.343-3.224-15.979C38.281 6.34 33.3 6.801 25.987 6.801h.009zm-1.72 3.46c16.41-.026 18.498-1.85 17.346 23.494-.41 8.963-7.235 7.98-15.624 7.98-15.297 0-15.737-.438-15.737-15.741 0-15.481 1.214-15.724 14.014-15.737v.004zm11.968 3.188a2.303 2.303 0 100 4.606 2.303 2.303 0 000-4.606zm-10.248 2.693c-5.445 0-9.859 4.415-9.859 9.86 0 5.445 4.414 9.859 9.859 9.859s9.856-4.414 9.856-9.859-4.411-9.86-9.856-9.86zm0 3.46c8.46 0 8.471 12.8 0 12.8-8.459 0-8.472-12.8 0-12.8z" fill="#fff"/></g><defs><linearGradient id="paint0_linear_121_27" x1="3.35" y1="48.679" x2="51.678" y2="6.851" gradientUnits="userSpaceOnUse"><stop stop-color="#FD5"/><stop offset=".5" stop-color="#FF543E"/><stop offset="1" stop-color="#C837AB"/></linearGradient><clipPath id="clip0_121_27"><path fill="#fff" d="M0 0h52v52H0z"/></clipPath></defs></svg>