<svg width="64" height="64" fill="none" xmlns="http://www.w3.org/2000/svg"><path d="M60.732 17.003a7.517 7.517 0 00-5.288-5.288C50.75 10.43 31.968 10.43 31.968 10.43s-18.78 0-23.476 1.236c-2.52.691-4.596 2.767-5.288 5.337C1.97 21.698 1.97 31.435 1.97 31.435s0 9.785 1.235 14.431a7.518 7.518 0 005.289 5.288c4.744 1.285 23.476 1.285 23.476 1.285s18.78 0 23.475-1.236a7.517 7.517 0 005.29-5.288c1.234-4.695 1.234-14.43 1.234-14.43s.05-9.787-1.236-14.482zM25.99 40.43V22.44l15.617 8.995-15.618 8.995z" fill="#D00"/></svg>